<?xml version="1.0" encoding="UTF-8" standalone="no"?><!DOCTYPE svg PUBLIC "-//W3C//DTD SVG 1.1//EN" "http://www.w3.org/Graphics/SVG/1.1/DTD/svg11.dtd"><svg width="100%" height="100%" viewBox="0 0 2134 2134" version="1.1" xmlns="http://www.w3.org/2000/svg" xmlns:xlink="http://www.w3.org/1999/xlink" xml:space="preserve" xmlns:serif="http://www.serif.com/" style="fill-rule:evenodd;clip-rule:evenodd;stroke-linejoin:round;stroke-miterlimit:2;"><g><path d="M1066.67,222.222c-463.249,0 -844.445,381.196 -844.445,844.445c0,463.248 381.196,844.444 844.445,844.444c463.248,0 844.444,-381.196 844.444,-844.444c-0.511,-463.056 -381.389,-843.934 -844.444,-844.445Zm-444.445,1454.09l0,-76.311c0.146,-121.852 100.37,-222.076 222.222,-222.222l44.445,-0c-0,97.526 80.252,177.778 177.778,177.778c97.526,-0 177.777,-80.252 177.777,-177.778l44.445,-0c121.852,0.146 222.076,100.37 222.222,222.222l0,76.311c-263.634,194.021 -625.255,194.021 -888.889,0Zm217.778,-1007.51c5.299,28.412 15.947,55.561 31.378,80c-22.728,18.403 -40.791,41.918 -52.711,68.622l-3.023,-5.955c-17.146,-29.71 -20.289,-65.537 -8.577,-97.778c7.446,-17.257 18.707,-32.606 32.933,-44.889Zm87.378,-91.022l239.511,-0c54.524,0.023 105.495,27.609 135.333,73.244c33.611,49.258 40.536,112.166 18.445,167.556l-2.667,6.755c-25.319,-67.811 -90.066,-113.338 -162.444,-114.222l-177.778,0c-7.443,0.156 -14.867,0.81 -22.222,1.956c-27.844,-39.172 -38.068,-88.259 -28.178,-135.289Zm-81.822,355.555c23.142,0.069 42.662,-17.948 44.444,-41.022c1.08,-48.547 39.347,-88.789 87.778,-92.311l177.778,0c48.482,3.456 86.824,43.718 87.911,92.311c1.782,23.074 21.302,41.091 44.444,41.022l0.978,0c24.205,0.254 43.98,20.238 43.98,44.445c0,24.383 -20.064,44.447 -44.447,44.447c-0.155,-0 -0.311,-0.001 -0.466,-0.003c-23.158,-0.067 -42.685,17.976 -44.445,41.067c-3.142,96.554 -80.394,175.69 -176.844,181.155c-96.502,-5.399 -173.831,-84.554 -176.978,-181.155c-2.173,-23.211 -21.932,-41.145 -45.245,-41.067c-24.171,-0.302 -43.892,-20.271 -43.892,-44.444c0,-24.384 20.065,-44.448 44.448,-44.448c0.185,-0 0.37,0.001 0.556,0.003Zm132.222,383.2c57.124,22.393 120.653,22.393 177.778,0l-0,61.245c-0,48.763 -40.126,88.889 -88.889,88.889c-48.763,-0 -88.889,-40.126 -88.889,-88.889l-0,-61.245Zm622.222,284.756l0,-1.289c-0.195,-170.597 -140.514,-310.916 -311.111,-311.111l-44.445,-0l0,-30.533c42.6,-41.326 71.574,-94.697 83.023,-152.934c56.068,-16.712 94.77,-68.633 94.77,-127.139c0,-32.857 -12.207,-64.572 -34.237,-88.95l15.067,-37.733c33.013,-82.748 22.755,-176.723 -27.334,-250.4c-46.183,-70.181 -124.83,-112.476 -208.844,-112.311l-274.4,-0c-18.696,-0.004 -35.484,11.789 -41.822,29.378c-4.784,14.262 -8.411,28.888 -10.845,43.733c-51.734,24.139 -92.82,66.49 -115.378,118.933c-21.2,55.691 -16.957,117.966 11.6,170.267l15.512,31.111c-25.944,25.056 -40.613,59.616 -40.613,95.684c0,58.54 38.643,110.519 94.701,127.383c11.521,58.272 40.572,111.658 83.245,152.978l-0,30.533l-44.445,-0c-170.596,0.195 -310.916,140.514 -311.111,311.111l0,1.289c-142.205,-141.714 -222.222,-334.421 -222.222,-535.182c0,-414.486 341.07,-755.556 755.556,-755.556c414.485,0 755.555,341.07 755.555,755.556c0,200.761 -80.017,393.468 -222.222,535.182Z" style="fill:#fff;fill-rule:nonzero;"/><path d="M1066.67,133.333c24.381,0 44.444,-20.063 44.444,-44.444l0,-44.445c0,-24.381 -20.063,-44.444 -44.444,-44.444c-24.382,0 -44.445,20.063 -44.445,44.444l0,44.445c0,24.381 20.063,44.444 44.445,44.444Z" style="fill:#fff;fill-rule:nonzero;"/><path d="M1066.67,2000c-24.382,0 -44.445,20.063 -44.445,44.444l0,44.445c0,24.381 20.063,44.444 44.445,44.444c24.381,0 44.444,-20.063 44.444,-44.444l0,-44.445c0,-24.381 -20.063,-44.444 -44.444,-44.444Z" style="fill:#fff;fill-rule:nonzero;"/><path d="M88.889,1022.22l-44.445,0c-24.381,0 -44.444,20.063 -44.444,44.445c0,24.381 20.063,44.444 44.444,44.444l44.445,0c24.381,0 44.444,-20.063 44.444,-44.444c0,-24.382 -20.063,-44.445 -44.444,-44.445Z" style="fill:#fff;fill-rule:nonzero;"/><path d="M2088.89,1022.22l-44.445,0c-24.381,0 -44.444,20.063 -44.444,44.445c-0,24.381 20.063,44.444 44.444,44.444l44.445,0c24.381,0 44.444,-20.063 44.444,-44.444c0,-24.382 -20.063,-44.445 -44.444,-44.445Z" style="fill:#fff;fill-rule:nonzero;"/><path d="M343.867,406.711c8.283,8 19.36,12.476 30.876,12.476c24.381,0 44.444,-20.063 44.444,-44.444c0,-11.516 -4.476,-22.593 -12.476,-30.876l-31.467,-31.467c-8.283,-8 -19.36,-12.476 -30.876,-12.476c-24.381,-0 -44.444,20.063 -44.444,44.444c-0,11.516 4.476,22.593 12.476,30.876l31.467,31.467Z" style="fill:#fff;fill-rule:nonzero;"/><path d="M1789.47,1726.62c-8.284,-8 -19.36,-12.476 -30.876,-12.476c-24.382,0 -44.445,20.063 -44.445,44.445c0,11.516 4.476,22.592 12.476,30.876l31.467,31.466c8.283,8.001 19.36,12.476 30.876,12.476c24.381,0 44.444,-20.063 44.444,-44.444c0,-11.516 -4.475,-22.593 -12.476,-30.876l-31.466,-31.467Z" style="fill:#fff;fill-rule:nonzero;"/><path d="M343.822,1726.62l-31.422,31.467c-8.327,8.332 -13.009,19.642 -13.009,31.422c-0,24.387 20.067,44.454 44.453,44.454c11.791,-0 23.111,-4.691 31.445,-13.032l31.422,-31.466c8.327,-8.333 13.009,-19.643 13.009,-31.423c0,-24.386 -20.067,-44.453 -44.453,-44.453c-11.791,-0 -23.11,4.691 -31.445,13.031Z" style="fill:#fff;fill-rule:nonzero;"/><path d="M1758.04,419.733c11.798,0.01 23.126,-4.679 31.467,-13.022l31.422,-31.467c8.327,-8.332 13.009,-19.642 13.009,-31.422c0,-24.386 -20.067,-44.453 -44.453,-44.453c-11.791,-0 -23.11,4.691 -31.445,13.031l-31.422,31.467c-8.329,8.331 -13.013,19.641 -13.013,31.422c0,24.378 20.058,44.439 44.435,44.444Z" style="fill:#fff;fill-rule:nonzero;"/></g></svg>