<?xml version="1.0" encoding="UTF-8" standalone="no"?><!DOCTYPE svg PUBLIC "-//W3C//DTD SVG 1.1//EN" "http://www.w3.org/Graphics/SVG/1.1/DTD/svg11.dtd"><svg width="100%" height="100%" viewBox="0 0 1883 2134" version="1.1" xmlns="http://www.w3.org/2000/svg" xmlns:xlink="http://www.w3.org/1999/xlink" xml:space="preserve" xmlns:serif="http://www.serif.com/" style="fill-rule:evenodd;clip-rule:evenodd;stroke-linejoin:round;stroke-miterlimit:2;"><g id="Layer_2"><g id="data"><path d="M941.167,752.708c-245.125,0 -476.167,-35.75 -650.584,-100.625c-187.375,-69.75 -290.583,-167.666 -290.583,-275.708c0,-108.042 103.208,-206 290.583,-275.75c174.417,-64.875 405.459,-100.625 650.584,-100.625c245.125,0 476.125,35.75 650.5,100.625c187.5,69.75 290.583,167.667 290.583,275.75c0,108.083 -103.083,205.958 -290.583,275.708c-174.375,64.875 -405.417,100.625 -650.5,100.625Zm-0,-669.375c-505.542,0 -857.834,154.417 -857.834,293.042c0,138.625 352.292,293 857.834,293c505.541,0 857.791,-154.417 857.791,-293c0,-138.583 -352.291,-293.042 -857.791,-293.042Z" style="fill:#fff;fill-rule:nonzero;"/><path d="M941.167,1212.92c-245.125,-0 -476.167,-35.75 -650.584,-100.625c-187.375,-69.75 -290.583,-167.667 -290.583,-275.75c0,-22.858 18.809,-41.667 41.667,-41.667c22.857,0 41.666,18.809 41.666,41.667c0,138.458 352.292,293.041 857.834,293.041c505.541,0 857.791,-154.583 857.791,-293.041c0,-22.858 18.809,-41.667 41.667,-41.667c22.858,0 41.667,18.809 41.667,41.667c-0,108.083 -103.167,206 -290.584,275.75c-174.416,64.875 -405.458,100.625 -650.541,100.625Z" style="fill:#fff;fill-rule:nonzero;"/><path d="M941.167,1673.12c-245.125,0 -476.167,-35.75 -650.584,-100.625c-187.375,-69.75 -290.583,-167.667 -290.583,-275.75c0,-22.858 18.809,-41.667 41.667,-41.667c22.857,0 41.666,18.809 41.666,41.667c0,138.625 352.292,293.042 857.834,293.042c505.541,-0 857.791,-154.417 857.791,-293.042c0,-22.858 18.809,-41.667 41.667,-41.667c22.858,0 41.667,18.809 41.667,41.667c-0,108.083 -103.167,206 -290.584,275.75c-174.416,65 -405.458,100.625 -650.541,100.625Z" style="fill:#fff;fill-rule:nonzero;"/><path d="M941.167,2133.33c-245.125,0 -476.167,-35.75 -650.584,-100.666c-187.375,-69.709 -290.583,-167.625 -290.583,-275.709l0,-1380.58c0,-22.858 18.809,-41.667 41.667,-41.667c22.857,0 41.666,18.809 41.666,41.667l0,1380.58c0,138.625 352.292,293.042 857.834,293.042c505.541,0 857.791,-154.417 857.791,-293.042l0,-1380.58c0,-22.858 18.809,-41.667 41.667,-41.667c22.858,0 41.667,18.809 41.667,41.667l-0,1380.58c-0,108.084 -103.167,206 -290.584,275.709c-174.416,64.916 -405.458,100.666 -650.541,100.666Z" style="fill:#fff;fill-rule:nonzero;"/><path d="M1631.46,878.25c-2.729,-0.007 -5.451,-0.286 -8.125,-0.833c-2.668,-0.538 -5.277,-1.334 -7.791,-2.375c-2.524,-1.036 -4.939,-2.32 -7.209,-3.834c-4.571,-3.016 -8.483,-6.928 -11.5,-11.5c-1.497,-2.279 -2.78,-4.692 -3.833,-7.208c-1.042,-2.514 -1.837,-5.124 -2.375,-7.792c-1.111,-5.373 -1.111,-10.918 0,-16.291c2.113,-10.845 8.497,-20.399 17.708,-26.5c2.27,-1.514 4.685,-2.798 7.209,-3.834c2.514,-1.041 5.123,-1.837 7.791,-2.375c5.377,-1.083 10.916,-1.083 16.292,0c8.055,1.631 15.458,5.586 21.292,11.375c1.926,1.962 3.67,4.096 5.208,6.375c3.028,4.532 5.137,9.615 6.208,14.959c1.056,5.379 1.056,10.912 0,16.291c-0.538,2.668 -1.333,5.278 -2.375,7.792c-1.053,2.516 -2.336,4.929 -3.833,7.208c-1.528,2.274 -3.272,4.395 -5.208,6.334c-1.929,1.934 -4.051,3.666 -6.334,5.166c-2.26,1.505 -4.66,2.789 -7.166,3.834c-2.517,1.036 -5.126,1.831 -7.792,2.375c-2.688,0.546 -5.424,0.825 -8.167,0.833Z" style="fill:#fff;fill-rule:nonzero;"/><path d="M1464.12,920.083c-2.729,-0.007 -5.451,-0.286 -8.125,-0.833c-2.668,-0.538 -5.277,-1.333 -7.792,-2.375c-2.524,-1.036 -4.938,-2.32 -7.208,-3.833c-2.283,-1.501 -4.405,-3.232 -6.333,-5.167c-3.887,-3.865 -6.962,-8.47 -9.042,-13.542c-1.042,-2.514 -1.837,-5.123 -2.375,-7.791c-0.548,-2.744 -0.813,-5.536 -0.792,-8.334c-0.016,-2.797 0.249,-5.589 0.792,-8.333c0.55,-2.665 1.345,-5.273 2.375,-7.792c2.099,-5.049 5.171,-9.637 9.042,-13.5c1.927,-1.947 4.05,-3.693 6.333,-5.208c2.27,-1.514 4.684,-2.798 7.208,-3.833c2.515,-1.042 5.124,-1.837 7.792,-2.375c5.362,-1.083 10.888,-1.083 16.25,-0c2.668,0.538 5.277,1.333 7.792,2.375c2.524,1.035 4.938,2.319 7.208,3.833c4.56,3.047 8.47,6.97 11.5,11.542c1.505,2.26 2.789,4.66 3.833,7.166c1.049,2.512 1.845,5.122 2.375,7.792c0.557,2.743 0.836,5.535 0.834,8.333c0.007,2.799 -0.272,5.592 -0.834,8.334c-0.518,2.672 -1.314,5.284 -2.375,7.791c-1.044,2.52 -2.328,4.934 -3.833,7.209c-3.016,4.571 -6.929,8.483 -11.5,11.5c-2.27,1.513 -4.684,2.797 -7.208,3.833c-2.515,1.042 -5.124,1.837 -7.792,2.375c-2.674,0.547 -5.396,0.826 -8.125,0.833Z" style="fill:#fff;fill-rule:nonzero;"/><path d="M1296.79,961.917c-2.799,0.002 -5.591,-0.277 -8.334,-0.834c-2.666,-0.543 -5.275,-1.339 -7.791,-2.375c-7.638,-3.108 -14.161,-8.454 -18.709,-15.333c-1.513,-2.27 -2.797,-4.684 -3.833,-7.208c-1.042,-2.515 -1.837,-5.124 -2.375,-7.792c-0.534,-2.675 -0.799,-5.397 -0.792,-8.125c-0.016,-2.797 0.249,-5.589 0.792,-8.333c0.619,-2.658 1.484,-5.253 2.583,-7.75c2.1,-5.039 5.156,-9.624 9,-13.5c1.962,-1.927 4.096,-3.67 6.375,-5.209c2.261,-1.505 4.661,-2.788 7.167,-3.833c2.516,-1.036 5.125,-1.831 7.792,-2.375c5.376,-1.083 10.915,-1.083 16.291,-0c2.668,0.538 5.278,1.333 7.792,2.375c2.516,1.053 4.929,2.336 7.208,3.833c2.266,1.539 4.386,3.283 6.334,5.209c1.934,1.928 3.666,4.05 5.166,6.333c1.505,2.26 2.789,4.66 3.834,7.167c1.03,2.518 1.825,5.126 2.375,7.791c0.557,2.743 0.836,5.535 0.833,8.334c-0.007,2.729 -0.286,5.451 -0.833,8.125c-0.538,2.668 -1.334,5.277 -2.375,7.791c-1.036,2.524 -2.32,4.939 -3.834,7.209c-1.5,2.282 -3.232,4.404 -5.166,6.333c-1.937,1.926 -4.058,3.656 -6.334,5.167c-2.279,1.497 -4.692,2.78 -7.208,3.833c-2.514,1.042 -5.124,1.837 -7.792,2.375c-2.689,0.534 -5.425,0.799 -8.166,0.792Z" style="fill:#fff;fill-rule:nonzero;"/><path d="M1631.46,1338.42c-2.728,0.007 -5.449,-0.258 -8.125,-0.792c-2.668,-0.538 -5.277,-1.333 -7.791,-2.375c-2.524,-1.036 -4.939,-2.32 -7.209,-3.833c-2.283,-1.516 -4.405,-3.261 -6.333,-5.209c-7.789,-7.824 -12.179,-18.418 -12.208,-29.458c-0.005,-2.799 0.274,-5.591 0.833,-8.333c0.538,-2.668 1.333,-5.278 2.375,-7.792c1.053,-2.516 2.336,-4.929 3.833,-7.208c1.511,-2.276 3.241,-4.397 5.167,-6.334c1.929,-1.934 4.051,-3.666 6.333,-5.166c2.27,-1.514 4.685,-2.798 7.209,-3.834c2.514,-1.041 5.123,-1.837 7.791,-2.375c5.377,-1.083 10.916,-1.083 16.292,0c5.344,1.071 10.426,3.181 14.958,6.209c2.283,1.5 4.405,3.232 6.334,5.166c1.926,1.948 3.669,4.068 5.208,6.334c1.497,2.279 2.78,4.692 3.833,7.208c1.042,2.514 1.837,5.124 2.375,7.792c0.546,2.743 0.811,5.536 0.792,8.333c-0.03,11.04 -4.42,21.634 -12.208,29.458c-1.928,1.948 -4.05,3.693 -6.334,5.209c-4.532,3.027 -9.614,5.137 -14.958,6.208c-2.69,0.532 -5.425,0.797 -8.167,0.792Z" style="fill:#fff;fill-rule:nonzero;"/><path d="M1464.12,1380.25c-2.728,0.007 -5.45,-0.258 -8.125,-0.792c-2.668,-0.538 -5.277,-1.333 -7.792,-2.375c-2.524,-1.035 -4.938,-2.319 -7.208,-3.833c-2.283,-1.501 -4.405,-3.232 -6.333,-5.167c-1.926,-1.947 -3.67,-4.067 -5.209,-6.333c-1.497,-2.28 -2.78,-4.693 -3.833,-7.208c-1.042,-2.515 -1.837,-5.124 -2.375,-7.792c-1.056,-5.379 -1.056,-10.913 0,-16.292c0.538,-2.668 1.333,-5.277 2.375,-7.791c1.053,-2.516 2.336,-4.929 3.833,-7.209c1.539,-2.266 3.283,-4.386 5.209,-6.333c1.928,-1.935 4.05,-3.666 6.333,-5.167c2.27,-1.513 4.684,-2.797 7.208,-3.833c2.515,-1.042 5.124,-1.837 7.792,-2.375c5.362,-1.083 10.888,-1.083 16.25,-0c2.668,0.538 5.277,1.333 7.792,2.375c2.524,1.036 4.938,2.32 7.208,3.833c2.283,1.501 4.405,3.232 6.333,5.167c1.926,1.937 3.657,4.058 5.167,6.333c1.497,2.28 2.78,4.693 3.833,7.209c1.061,2.507 1.857,5.119 2.375,7.791c1.111,5.374 1.111,10.918 0,16.292c-0.518,2.673 -1.314,5.284 -2.375,7.792c-1.053,2.515 -2.336,4.928 -3.833,7.208c-1.51,2.275 -3.241,4.397 -5.167,6.333c-1.928,1.935 -4.05,3.666 -6.333,5.167c-2.27,1.514 -4.684,2.798 -7.208,3.833c-2.515,1.042 -5.124,1.837 -7.792,2.375c-2.675,0.534 -5.397,0.799 -8.125,0.792Z" style="fill:#fff;fill-rule:nonzero;"/><path d="M1296.79,1422.08c-2.798,0.019 -5.59,-0.247 -8.334,-0.791c-2.666,-0.544 -5.275,-1.339 -7.791,-2.375c-5.044,-2.114 -9.64,-5.168 -13.542,-9c-3.86,-3.879 -6.918,-8.481 -9,-13.542c-1.042,-2.514 -1.837,-5.124 -2.375,-7.792c-0.532,-2.675 -0.797,-5.397 -0.792,-8.125c0.021,-11.046 4.395,-21.65 12.167,-29.5c1.963,-1.913 4.097,-3.642 6.375,-5.166c2.26,-1.505 4.66,-2.789 7.167,-3.834c2.516,-1.036 5.125,-1.831 7.791,-2.375c16.505,-3.349 33.481,3.676 42.792,17.709c1.497,2.279 2.78,4.692 3.833,7.208c1.042,2.514 1.837,5.124 2.375,7.792c1.111,5.373 1.111,10.918 0,16.291c-0.538,2.668 -1.333,5.278 -2.375,7.792c-1.053,2.516 -2.336,4.929 -3.833,7.208c-3.016,4.572 -6.929,8.484 -11.5,11.5c-2.28,1.497 -4.693,2.781 -7.208,3.834c-2.515,1.041 -5.124,1.837 -7.792,2.375c-2.621,0.52 -5.286,0.786 -7.958,0.791Z" style="fill:#fff;fill-rule:nonzero;"/><path d="M1631.46,1798.62c-2.728,0.007 -5.449,-0.258 -8.125,-0.792c-2.668,-0.538 -5.277,-1.333 -7.791,-2.375c-2.523,-1.022 -4.937,-2.292 -7.209,-3.791c-2.274,-1.528 -4.395,-3.273 -6.333,-5.209c-1.935,-1.928 -3.666,-4.05 -5.167,-6.333c-1.505,-2.26 -2.788,-4.66 -3.833,-7.167c-1.036,-2.516 -1.831,-5.125 -2.375,-7.791c-0.557,-2.743 -0.836,-5.535 -0.833,-8.334c0.007,-2.729 0.286,-5.451 0.833,-8.125c0.538,-2.668 1.333,-5.277 2.375,-7.791c1.036,-2.524 2.32,-4.939 3.833,-7.209c3.017,-4.571 6.929,-8.483 11.5,-11.5c2.27,-1.513 4.685,-2.797 7.209,-3.833c2.514,-1.042 5.123,-1.837 7.791,-2.375c5.377,-1.083 10.916,-1.083 16.292,0c2.666,0.544 5.275,1.339 7.792,2.375c2.506,1.045 4.906,2.328 7.166,3.833c2.283,1.501 4.405,3.232 6.334,5.167c1.936,1.938 3.68,4.059 5.208,6.333c1.514,2.27 2.798,4.685 3.833,7.209c1.042,2.514 1.837,5.123 2.375,7.791c0.534,2.676 0.799,5.397 0.792,8.125c0.017,2.798 -0.249,5.59 -0.792,8.334c-0.543,2.666 -1.339,5.275 -2.375,7.791c-5.293,12.867 -16.692,22.262 -30.333,25c-2.694,0.49 -5.429,0.714 -8.167,0.667Z" style="fill:#fff;fill-rule:nonzero;"/><path d="M1464.12,1840.46c-2.728,0.007 -5.45,-0.258 -8.125,-0.791c-2.668,-0.538 -5.277,-1.334 -7.792,-2.375c-2.524,-1.036 -4.938,-2.32 -7.208,-3.834c-4.561,-3.06 -8.481,-6.981 -11.542,-11.541c-1.475,-2.271 -2.744,-4.669 -3.791,-7.167c-1.061,-2.508 -1.857,-5.119 -2.375,-7.792c-0.557,-2.742 -0.836,-5.534 -0.834,-8.333c0.007,-2.729 0.286,-5.451 0.834,-8.125c0.518,-2.673 1.314,-5.284 2.375,-7.792c1.038,-2.515 2.307,-4.928 3.791,-7.208c1.528,-2.274 3.273,-4.395 5.209,-6.333c1.928,-1.935 4.05,-3.666 6.333,-5.167c2.27,-1.514 4.684,-2.798 7.208,-3.833c2.515,-1.042 5.124,-1.837 7.792,-2.375c5.362,-1.083 10.888,-1.083 16.25,-0c2.668,0.538 5.277,1.333 7.792,2.375c2.524,1.035 4.938,2.319 7.208,3.833c2.283,1.501 4.405,3.232 6.333,5.167c1.926,1.936 3.657,4.058 5.167,6.333c1.514,2.27 2.798,4.684 3.833,7.208c1.061,2.508 1.857,5.119 2.375,7.792c0.548,2.674 0.827,5.396 0.834,8.125c0.002,2.799 -0.277,5.591 -0.834,8.333c-0.518,2.673 -1.314,5.284 -2.375,7.792c-1.044,2.506 -2.328,4.906 -3.833,7.167c-1.501,2.282 -3.232,4.404 -5.167,6.333c-1.938,1.936 -4.059,3.68 -6.333,5.208c-2.27,1.514 -4.684,2.798 -7.208,3.834c-2.515,1.041 -5.124,1.837 -7.792,2.375c-2.675,0.533 -5.397,0.798 -8.125,0.791Z" style="fill:#fff;fill-rule:nonzero;"/><path d="M1296.79,1882.33c-2.799,0.003 -5.591,-0.276 -8.334,-0.833c-2.666,-0.544 -5.275,-1.339 -7.791,-2.375c-15.535,-6.441 -25.713,-21.683 -25.709,-38.5c-0.005,-2.728 0.26,-5.449 0.792,-8.125c0.538,-2.668 1.333,-5.277 2.375,-7.792c2.082,-5.061 5.14,-9.662 9,-13.541c3.902,-3.833 8.498,-6.887 13.542,-9c2.516,-1.036 5.125,-1.832 7.791,-2.375c5.377,-1.083 10.916,-1.083 16.292,-0c2.668,0.538 5.277,1.333 7.792,2.375c2.515,1.053 4.928,2.336 7.208,3.833c4.571,3.016 8.484,6.929 11.5,11.5c1.497,2.28 2.78,4.693 3.833,7.208c1.042,2.515 1.837,5.124 2.375,7.792c0.545,2.674 0.825,5.396 0.834,8.125c0.002,13.915 -6.967,26.944 -18.542,34.667c-2.28,1.497 -4.693,2.78 -7.208,3.833c-2.515,1.042 -5.124,1.837 -7.792,2.375c-2.619,0.536 -5.285,0.815 -7.958,0.833Z" style="fill:#fff;fill-rule:nonzero;"/></g></g></svg>