<?xml version="1.0" encoding="UTF-8"?>
<svg xmlns="http://www.w3.org/2000/svg" id="Icons" viewBox="0 0 74 74" width="512" height="512"><path d="M3,30a1,1,0,0,1-.608-1.794l12-9.181a1,1,0,0,1,1.214,1.589l-12,9.18A.989.989,0,0,1,3,30Z"/><path d="M71,72H3a1,1,0,0,1-1-1V29a1,1,0,0,1,2,0V70H70V29a1,1,0,0,1,2,0V71A1,1,0,0,1,71,72Z"/><path d="M37,53.81a15.126,15.126,0,0,1-9.632-3.447l-25-20.591a1,1,0,0,1,1.272-1.544l25,20.591a13.172,13.172,0,0,0,16.72,0l25-20.591a1,1,0,0,1,1.272,1.544l-25,20.591A15.126,15.126,0,0,1,37,53.81Z"/><path d="M71,72a1,1,0,0,1-.635-.228l-25.5-21a1,1,0,0,1,1.272-1.544l25.5,21A1,1,0,0,1,71,72Z"/><path d="M3,72a1,1,0,0,1-.637-1.772l25.5-21a1,1,0,0,1,1.272,1.544l-25.5,21A1,1,0,0,1,3,72Z"/><path d="M48.339,12.67a1,1,0,0,1-.607-.206L37,4.259,26.268,12.464a1,1,0,0,1-1.215-1.589l11.34-8.669a1,1,0,0,1,1.214,0l11.34,8.669a1,1,0,0,1-.608,1.8Z"/><path d="M71,30a.989.989,0,0,1-.606-.206l-12-9.18a1,1,0,0,1,1.214-1.589l12,9.181A1,1,0,0,1,71,30Z"/><path d="M59,39.88a1,1,0,0,1-1-1V12.67H16V38.88a1,1,0,0,1-2,0V11.67a1,1,0,0,1,1-1H59a1,1,0,0,1,1,1V38.88A1,1,0,0,1,59,39.88Z"/><path d="M50.75,22H23.25a1,1,0,0,1,0-2h27.5a1,1,0,0,1,0,2Z"/><path d="M50.75,29.25H23.25a1,1,0,0,1,0-2h27.5a1,1,0,0,1,0,2Z"/><path d="M50.75,36.5H23.25a1,1,0,0,1,0-2h27.5a1,1,0,0,1,0,2Z"/></svg>
