<svg xmlns="http://www.w3.org/2000/svg" xmlns:xlink="http://www.w3.org/1999/xlink" width="980" height="680" viewBox="0 0 980 680">
  <defs>
    <filter id="a" width="113.3%" height="120%" x="-6.7%" y="-10%" filterUnits="objectBoundingBox">
      <feMorphology in="SourceAlpha" operator="dilate" radius="2.5" result="shadowSpreadOuter1"/>
      <feOffset in="shadowSpreadOuter1" result="shadowOffsetOuter1"/>
      <feGaussianBlur in="shadowOffsetOuter1" result="shadowBlurOuter1" stdDeviation="17.5"/>
      <feColorMatrix in="shadowBlurOuter1" values="0 0 0 0 0 0 0 0 0 0 0 0 0 0 0 0 0 0 0.5 0"/>
    </filter>
    <rect id="b" width="900" height="600" x="0" y="0" rx="80"/>
  </defs>
  <g fill="none" fill-rule="evenodd">
    <g transform="translate(40 40)">
      <use xlink:href="#b" fill="#000" filter="url(#a)"/>
      <use xlink:href="#b" fill="#FFB3C7"/>
    </g>
    <g fill="#FFF" fill-rule="nonzero">
      <path d="M685.382 524.018c-17.254-11.757-40.561-8.832-54.375 6.824s-13.814 39.147 0 54.803c13.814 15.655 37.121 18.58 54.375 6.823v5.015h23.5v-78.485h-23.5v5.02Zm-21.372 54.42c-11.013-.586-19.525-9.888-19.135-20.91.39-11.021 9.54-19.697 20.567-19.502 11.027.195 19.863 9.19 19.863 20.218-.313 11.453-9.842 20.489-21.295 20.193ZM338.532 484.021h24.592v113.463h-24.592zM578.916 516.887a28.547 28.547 0 0 0-24.205 10.954v-8.839H531.31v78.483h23.684v-41.246a16.551 16.551 0 0 1 17.64-17.78c10.329 0 16.265 6.17 16.265 17.618v41.408h23.473v-49.911c0-18.266-14.523-30.687-33.455-30.687ZM437.472 524.018c-17.255-11.757-40.562-8.832-54.376 6.824s-13.814 39.147 0 54.803c13.814 15.655 37.121 18.58 54.376 6.823v5.015h23.499v-78.485h-23.5v5.02Zm-21.373 54.42c-11.014-.585-19.528-9.886-19.138-20.908.39-11.022 9.54-19.7 20.566-19.504 11.027.195 19.864 9.19 19.864 20.218-.312 11.453-9.84 20.488-21.293 20.193ZM497.323 529.222v-10.223h-24.06v78.486h24.111v-36.64c0-12.365 13.401-19.01 22.7-19.01.094 0 .184.01.279.01v-22.841a29.3 29.3 0 0 0-23.03 10.218ZM733.83 569.647c-8.146 0-14.749 6.604-14.749 14.75 0 8.145 6.604 14.748 14.75 14.748s14.75-6.603 14.75-14.749a14.748 14.748 0 0 0-14.75-14.75ZM321.58 484h-25.486a65.184 65.184 0 0 1-26.352 52.607l-10.096 7.562 39.123 53.352h32.166l-35.998-49.091A90.298 90.298 0 0 0 321.581 484ZM231 484h25.532v113.516H231z"/>
    </g>
    <g fill="#FFF" fill-rule="nonzero">
      <path d="M514.676 331.995c.012.028-.041-.134-.15-.462l-.108-.321a2740.003 2740.003 0 0 0-7.008-20.533l-.424-1.225-.424-1.223c-2.825-8.136-5.572-15.875-6.708-18.576-3.923-9.32-6.868-12.869-9.727-13.274a6.939 6.939 0 0 1-.568.023c-3.03 0-6.101 3.386-10.284 13.314-1.174 2.783-4.051 10.898-6.962 19.29l-.623 1.8-.415 1.2c-3.653 10.58-7.043 20.643-6.815 20.026l-.162.463a347.518 347.518 0 0 0-2.573 7.7l-2.642 8.198c-17.057 52.68-40.572 70.346-120.038 70.293-45.489 0-75.43-18.839-92.225-52.198-11.585-23.012-15.37-45.96-17.277-82.632a93.158 93.158 0 0 0-10.704-33.915 6.982 6.982 0 0 1-.839-3.323v-22.184a7.129 7.129 0 0 1 6.395-7.024A1205.216 1205.216 0 0 1 353.187 210c28.746 0 49.672.944 78.02 3.04l13.01.975c4.16.312 8.323.602 12.486.87a496.088 496.088 0 0 0 32.856 1.154c.121 0 .242.003.362.009 10.591-.008 20.625-.395 32.494-1.152 3.722-.241 7.57-.514 12.497-.88l13-.976c28.358-2.096 49.273-3.04 78.05-3.04a1205.11 1205.11 0 0 1 128.761 7.422 7.129 7.129 0 0 1 6.395 7.025v22.173c0 1.16-.286 2.302-.839 3.323a92.917 92.917 0 0 0-10.672 33.495c-1.94 37.092-5.724 60.04-17.309 83.042-16.794 33.359-46.736 52.208-92.214 52.208-79.404 0-102.929-17.738-120.08-70.513-.127-.412-.62-1.945-1.154-3.604l-.202-.626a939.87 939.87 0 0 0-1.265-3.895 427.455 427.455 0 0 0-2.757-8.198Zm13.789-4.144c.841 2.412 1.684 4.91 2.651 7.89l2.632 8.146c7.716 23.756 13.293 34.24 25.14 43.151 15.337 11.553 40.572 17.508 81.196 17.508 39.911 0 64.894-15.726 79.288-44.325 10.452-20.737 13.996-42.28 15.872-77.936a107.08 107.08 0 0 1 11.47-37.395v-14.122h-.011a1190.287 1190.287 0 0 0-120.772-6.626c-28.337 0-48.917.923-76.93 2.999l-13.01.985c-4.958.357-8.858.64-12.633.88-12.307.787-22.739 1.175-33.799 1.175l.37.001c-.123.006-.246.01-.37.01-11.05 0-21.492-.399-33.8-1.185-3.773-.252-7.673-.514-12.643-.88l-13-.986c-28.012-2.076-48.591-2.999-76.897-2.999-40.354.16-80.674 2.372-120.804 6.626v14.122a107.458 107.458 0 0 1 11.5 37.814c1.835 35.236 5.39 56.78 15.831 77.517 14.405 28.6 39.377 44.325 79.299 44.325 40.655.02 65.91-5.892 81.227-17.393 11.815-8.88 17.393-19.332 25.067-43.035l2.652-8.22c.978-3.009 1.821-5.545 2.662-7.979l.171-.495-.014.041c-.33.917 3.29-9.83 7.146-20.967l.843-2.432c2.885-8.3 5.75-16.363 7.055-19.518l.096-.23c5.985-14.204 12.38-21.535 22.475-22.04.37-.06.748-.09 1.134-.09 10.767 0 17.413 7.328 23.62 22.058 1.26 3 4.22 11.338 7.192 19.9l.435 1.253a2491.88 2491.88 0 0 1 7.296 21.364l.101.303c.116.349.155.474.105.336Zm-97.373-72.73c13.523 8.629 11.773 21.513 0 58.29l-3.188 7.968c-11.71 37.846-18.346 58.76-86.7 58.76h-.734a63.468 63.468 0 0 1-46.505-17.926c-24.104-23.963-24.692-63.105-24.7-67.96V293.827a196.192 196.192 0 0 1-.88-19.322 22.351 22.351 0 0 1 5.116-16.847 23.221 23.221 0 0 1 15.861-8.177c17.466-1.93 44.263-2.862 61.854-3.062 45.216-.524 69.853 2.191 79.876 8.702Zm-64.307 4.079-68.5 83.995a6.982 6.982 0 0 0 1.131 9.939 7.307 7.307 0 0 0 10.128-1.111l68.49-83.985a6.982 6.982 0 0 0-1.122-9.939 7.307 7.307 0 0 0-10.127 1.101Zm-35.289-3.963a7.307 7.307 0 0 0-10.127 1.111l-39.314 48.204a6.982 6.982 0 0 0 1.112 9.939 7.307 7.307 0 0 0 10.137-1.111l39.314-48.204a6.982 6.982 0 0 0-1.122-9.939Z"/>
      <path d="M637.715 380.14c-68.354 0-74.99-20.915-86.973-58.688l-2.642-8.303c-11.972-36.787-13.524-49.598 0-58.29 10.022-6.646 34.66-9.235 79.865-8.7 17.665 0 44.398 1.121 61.854 3.05a23.347 23.347 0 0 1 15.935 8.314 22.477 22.477 0 0 1 5.053 16.983 140.23 140.23 0 0 1-.944 19.92c0 1.194.399 42.888-24.71 67.86a63.468 63.468 0 0 1-46.558 17.927h-.88v-.073ZM597.98 256.348l-39.324 48.204a6.982 6.982 0 0 0 1.122 9.939 7.307 7.307 0 0 0 10.127-1.111l39.314-48.204a6.982 6.982 0 0 0-1.111-9.939 7.307 7.307 0 0 0-10.138 1.111h.01Zm45.405 2.852-68.49 83.995a6.982 6.982 0 0 0 1.122 9.939 7.307 7.307 0 0 0 10.138-1.111l68.49-83.985a6.982 6.982 0 0 0-1.132-9.939 7.307 7.307 0 0 0-10.128 1.101Z"/>
    </g>
  </g>
</svg>