<?xml version="1.0" encoding="UTF-8" standalone="no"?>
<!-- Created with Inkscape (http://www.inkscape.org/) -->

<svg
   version="1.1"
   id="svg4869"
   xml:space="preserve"
   width="682.66669"
   height="682.66669"
   viewBox="0 0 682.66669 682.66669"
   xmlns="http://www.w3.org/2000/svg"
   xmlns:svg="http://www.w3.org/2000/svg"><defs
     id="defs4873"><clipPath
       clipPathUnits="userSpaceOnUse"
       id="clipPath4883"><path
         d="M 0,512 H 512 V 0 H 0 Z"
         id="path4881" /></clipPath></defs><g
     id="g4875"
     transform="matrix(1.3333333,0,0,-1.3333333,0,682.66667)"><g
       id="g4877"><g
         id="g4879"
         clip-path="url(#clipPath4883)"><g
           id="g4885"
           transform="translate(267.5332,495.5718)"><path
             d="m 0,0 5.118,-10.37 c 1.873,-3.796 5.495,-6.427 9.684,-7.036 l 11.444,-1.663 c 10.549,-1.533 14.762,-14.496 7.128,-21.937 l -8.281,-8.072 c -3.031,-2.955 -4.414,-7.213 -3.698,-11.384 L 23.349,-71.86 C 25.151,-82.367 14.123,-90.379 4.687,-85.418 l -10.235,5.381 c -3.747,1.97 -8.223,1.97 -11.971,0 l -10.235,-5.381 c -9.435,-4.961 -20.464,3.051 -18.661,13.558 l 1.954,11.398 c 0.716,4.171 -0.667,8.429 -3.698,11.384 l -8.281,8.072 c -7.634,7.441 -3.421,20.404 7.127,21.937 l 11.445,1.663 c 4.188,0.609 7.81,3.24 9.683,7.036 L -23.066,0 C -18.349,9.56 -4.718,9.56 0,0 Z"
             style="fill:none;stroke:#000000;stroke-width:15;stroke-linecap:round;stroke-linejoin:round;stroke-miterlimit:10;stroke-dasharray:none;stroke-opacity:1"
             id="path4887" /></g><g
           id="g4889"
           transform="translate(267.5332,96.1816)"><path
             d="m 0,0 5.118,-10.37 c 1.873,-3.796 5.495,-6.427 9.684,-7.036 l 11.444,-1.662 c 10.549,-1.534 14.762,-14.497 7.128,-21.938 l -8.281,-8.072 c -3.031,-2.955 -4.414,-7.212 -3.698,-11.384 L 23.349,-71.86 C 25.151,-82.367 14.123,-90.379 4.687,-85.418 l -10.235,5.381 c -3.747,1.97 -8.223,1.97 -11.971,0 l -10.235,-5.381 c -9.435,-4.961 -20.464,3.051 -18.661,13.558 l 1.954,11.398 c 0.716,4.172 -0.667,8.429 -3.698,11.384 l -8.281,8.072 c -7.634,7.441 -3.421,20.404 7.127,21.938 l 11.445,1.662 c 4.188,0.609 7.81,3.24 9.683,7.036 L -23.066,0 C -18.349,9.56 -4.718,9.56 0,0 Z"
             style="fill:none;stroke:#000000;stroke-width:15;stroke-linecap:round;stroke-linejoin:round;stroke-miterlimit:10;stroke-dasharray:none;stroke-opacity:1"
             id="path4891" /></g><g
           id="g4893"
           transform="translate(408.4404,159.9209)"><path
             d="m 0,0 5.117,-10.37 c 1.874,-3.796 5.495,-6.427 9.685,-7.036 l 11.443,-1.663 c 10.55,-1.533 14.762,-14.497 7.128,-21.938 l -8.28,-8.072 c -3.031,-2.954 -4.415,-7.212 -3.699,-11.384 L 23.349,-71.86 C 25.15,-82.367 14.123,-90.379 4.687,-85.419 l -10.236,5.381 c -3.747,1.97 -8.222,1.97 -11.97,0 l -10.236,-5.381 c -9.435,-4.96 -20.463,3.052 -18.661,13.559 l 1.955,11.397 c 0.716,4.172 -0.668,8.43 -3.699,11.384 l -8.281,8.072 c -7.633,7.441 -3.421,20.405 7.128,21.938 l 11.444,1.663 c 4.189,0.609 7.81,3.24 9.683,7.036 L -23.067,0 C -18.35,9.559 -4.718,9.559 0,0 Z"
             style="fill:none;stroke:#000000;stroke-width:15;stroke-linecap:round;stroke-linejoin:round;stroke-miterlimit:10;stroke-dasharray:none;stroke-opacity:1"
             id="path4895" /></g><g
           id="g4897"
           transform="translate(144.7197,142.0298)"><path
             d="M 0,0 8.15,-1.18 C 18.7,-2.71 22.91,-15.67 15.28,-23.12 L 7,-31.19 C 3.971,-34.14 2.59,-38.4 3.3,-42.57 l 1.961,-11.4 c 1.8,-10.51 -9.231,-18.52 -18.671,-13.56 l -10.23,5.38 c -3.75,1.97 -8.219,1.97 -11.969,0 l -10.241,-5.38 c -9.429,-4.96 -20.46,3.05 -18.66,13.56 l 1.96,11.4 c 0.71,4.17 -0.67,8.43 -3.7,11.38 l -8.279,8.07 c -7.641,7.45 -3.431,20.41 7.119,21.94 l 11.45,1.66 c 4.19,0.61 7.811,3.24 9.681,7.04 l 5.119,10.37 c 4.181,8.48 15.37,9.44 21.14,2.88"
             style="fill:none;stroke:#000000;stroke-width:15;stroke-linecap:round;stroke-linejoin:round;stroke-miterlimit:10;stroke-dasharray:none;stroke-opacity:1"
             id="path4899" /></g><g
           id="g4901"
           transform="translate(467.2285,295.8765)"><path
             d="m 0,0 5.117,-10.37 c 1.874,-3.796 5.495,-6.427 9.685,-7.036 l 11.443,-1.662 c 10.55,-1.534 14.762,-14.497 7.128,-21.938 l -8.28,-8.072 c -3.031,-2.955 -4.415,-7.212 -3.699,-11.384 L 23.349,-71.86 C 25.15,-82.367 14.122,-90.379 4.687,-85.418 l -10.236,5.381 c -3.747,1.97 -8.222,1.97 -11.97,0 l -10.236,-5.381 c -9.435,-4.961 -20.463,3.051 -18.661,13.558 l 1.955,11.398 c 0.715,4.172 -0.668,8.429 -3.699,11.384 l -8.281,8.072 c -7.633,7.441 -3.421,20.404 7.128,21.938 l 11.444,1.662 c 4.189,0.609 7.81,3.24 9.683,7.036 L -23.067,0 C -18.35,9.56 -4.718,9.56 0,0 Z"
             style="fill:none;stroke:#000000;stroke-width:15;stroke-linecap:round;stroke-linejoin:round;stroke-miterlimit:10;stroke-dasharray:none;stroke-opacity:1"
             id="path4903" /></g><g
           id="g4905"
           transform="translate(67.8389,295.8765)"><path
             d="m 0,0 5.118,-10.37 c 1.873,-3.796 5.494,-6.427 9.684,-7.036 l 11.444,-1.662 c 10.549,-1.534 14.761,-14.497 7.128,-21.938 l -8.281,-8.072 c -3.031,-2.955 -4.414,-7.212 -3.699,-11.384 L 23.349,-71.86 C 25.15,-82.367 14.123,-90.379 4.687,-85.418 l -10.236,5.381 c -3.747,1.97 -8.222,1.97 -11.97,0 l -10.235,-5.381 c -9.435,-4.961 -20.464,3.051 -18.662,13.558 l 1.955,11.398 c 0.716,4.172 -0.668,8.429 -3.699,11.384 l -8.28,8.072 c -7.634,7.441 -3.422,20.404 7.127,21.938 l 11.444,1.662 c 4.189,0.609 7.81,3.24 9.684,7.036 L -23.067,0 C -18.35,9.56 -4.718,9.56 0,0 Z"
             style="fill:none;stroke:#000000;stroke-width:15;stroke-linecap:round;stroke-linejoin:round;stroke-miterlimit:10;stroke-dasharray:none;stroke-opacity:1"
             id="path4907" /></g><g
           id="g4909"
           transform="translate(408.7393,437.082)"><path
             d="m 0,0 5.117,-10.37 c 1.874,-3.796 5.495,-6.427 9.685,-7.036 l 11.443,-1.663 c 10.55,-1.533 14.762,-14.497 7.128,-21.938 l -8.28,-8.072 c -3.031,-2.954 -4.415,-7.212 -3.699,-11.384 L 23.349,-71.86 C 25.15,-82.367 14.123,-90.379 4.687,-85.419 l -10.236,5.381 c -3.747,1.97 -8.222,1.97 -11.97,0 l -10.236,-5.381 c -9.435,-4.96 -20.463,3.052 -18.661,13.559 l 1.955,11.397 c 0.716,4.172 -0.668,8.43 -3.699,11.384 l -8.281,8.072 c -7.633,7.441 -3.421,20.405 7.128,21.938 l 11.444,1.663 c 4.189,0.609 7.81,3.24 9.683,7.036 L -23.067,0 C -18.35,9.559 -4.718,9.559 0,0 Z"
             style="fill:none;stroke:#000000;stroke-width:15;stroke-linecap:round;stroke-linejoin:round;stroke-miterlimit:10;stroke-dasharray:none;stroke-opacity:1"
             id="path4911" /></g><g
           id="g4913"
           transform="translate(126.3281,437.082)"><path
             d="m 0,0 5.118,-10.37 c 1.873,-3.796 5.494,-6.427 9.684,-7.036 l 11.444,-1.663 c 10.549,-1.533 14.761,-14.497 7.128,-21.938 l -8.281,-8.072 c -3.031,-2.954 -4.415,-7.212 -3.699,-11.384 L 23.349,-71.86 C 25.15,-82.367 14.123,-90.379 4.687,-85.419 l -10.236,5.381 c -3.747,1.97 -8.222,1.97 -11.97,0 l -10.236,-5.381 c -9.435,-4.96 -20.463,3.052 -18.661,13.559 l 1.955,11.397 c 0.716,4.172 -0.668,8.43 -3.699,11.384 l -8.28,8.072 c -7.634,7.441 -3.422,20.405 7.127,21.938 l 11.444,1.663 c 4.189,0.609 7.81,3.24 9.684,7.036 L -23.067,0 C -18.35,9.559 -4.718,9.559 0,0 Z"
             style="fill:none;stroke:#000000;stroke-width:15;stroke-linecap:round;stroke-linejoin:round;stroke-miterlimit:10;stroke-dasharray:none;stroke-opacity:1"
             id="path4915" /></g><g
           id="g4917"
           transform="translate(215.8994,292.5273)"><path
             d="M 0,0 C 8.284,0 15,6.716 15,15 15,23.284 8.284,30 0,30 h -47.594 c -8.284,0 -15,-6.716 -15,-15 V -97.952 c 0,-8.284 6.716,-15 15,-15 H 0 c 8.284,0 15,6.716 15,15 0,8.284 -6.716,15 -15,15 h -32.594 v 26.476 H -3.51 c 8.284,0 15,6.716 15,15 0,8.284 -6.716,15 -15,15 H -32.594 V 0 Z"
             style="fill:none;stroke:#000000;stroke-width:15;stroke-linecap:round;stroke-linejoin:round;stroke-miterlimit:10;stroke-dasharray:none;stroke-opacity:1"
             id="path4919" /></g><g
           id="g4921"
           transform="translate(369.8701,264.23)"><path
             d="m 0,0 v -34.54 c 0,-13.57 -5.16,-32.35 -29.74,-44.72 -7.79,-3.93 -16.37,-5.92 -25.51,-5.92 h -0.09 c -10.61,0.02 -20.4,2.84 -29.06,8.37 -16.46,10.52 -24.81,24.71 -24.81,42.19 v 78.44 c 0,8.28 6.72,15 15,15 8.28,0 15,-6.72 15,-15 v -78.44 c 0,-5.95 1.859,-11.09 10.96,-16.91 3.83,-2.44 8.07,-3.64 12.95,-3.65 h 0.05 c 4.47,0 8.399,0.89 12.02,2.71 11.72,5.91 13.23,12.68 13.23,17.93 v 78.36 c 0,8.28 6.71,15 15,15 8.28,0 15,-6.72 15,-15 L 0,30"
             style="fill:none;stroke:#000000;stroke-width:15;stroke-linecap:round;stroke-linejoin:round;stroke-miterlimit:10;stroke-dasharray:none;stroke-opacity:1"
             id="path4923" /></g></g></g></g></svg>
