<?xml version="1.0" encoding="UTF-8" standalone="no"?><!DOCTYPE svg PUBLIC "-//W3C//DTD SVG 1.1//EN" "http://www.w3.org/Graphics/SVG/1.1/DTD/svg11.dtd"><svg width="100%" height="100%" viewBox="0 0 2000 1649" version="1.1" xmlns="http://www.w3.org/2000/svg" xmlns:xlink="http://www.w3.org/1999/xlink" xml:space="preserve" xmlns:serif="http://www.serif.com/" style="fill-rule:evenodd;clip-rule:evenodd;stroke-linejoin:round;stroke-miterlimit:2;"><g><path d="M1800,500l-466.667,0c-43.721,0.875 -43.933,65.806 0.002,66.667c-0.002,-0 466.665,-0 466.665,-0c73.519,-0 133.333,59.814 133.333,133.333l0,500c0,73.535 -59.814,133.333 -133.333,133.333l-313.997,0c-11.231,0 -21.713,5.664 -27.865,15.039c-43.799,66.765 -54.785,152.735 -32.357,226.27c-89.298,-24.202 -154.323,-111.11 -143.259,-204.82c2.205,-18.957 -14.079,-36.904 -33.189,-36.489l-316,0c-73.519,0 -133.333,-59.798 -133.333,-133.333l0,-233.333c0,-18.425 -14.925,-33.334 -33.333,-33.334c-18.409,0 -33.334,14.909 -33.334,33.334l0,233.333c0,110.286 89.714,200 200,200l281.804,-0c2.647,136.141 126.408,249.607 260.646,248.403c13.884,1.042 27.816,-5.076 34.324,-17.771c5.648,-10.645 5.111,-23.535 -1.416,-33.659c-36.084,-56.055 -37.011,-134.701 -3.743,-196.973l295.052,-0c110.286,-0 200,-89.714 200,-200l0,-500c0,-110.286 -89.714,-200 -200,-200Z" style="fill:#fff;fill-rule:nonzero;"/><path d="M200,900l177.62,-0c33.236,62.24 32.357,140.918 -3.613,196.973c-6.51,10.156 -7.031,23.014 -1.367,33.659c6.506,12.618 20.345,18.762 34.163,17.739c134.593,1.106 257.9,-111.998 260.612,-248.371l399.251,0c110.287,0 200,-89.713 200,-200l0,-500c0,-110.286 -89.713,-200 -200,-200l-866.666,-0c-110.286,-0 -200,89.714 -200,200l0,500c0,110.286 89.714,200 200,200Zm-133.333,-700c-0,-73.519 59.814,-133.333 133.333,-133.333l866.667,-0c73.519,-0 133.333,59.814 133.333,133.333l0,500c0,73.535 -59.814,133.333 -133.333,133.333l-433.334,0c-19.032,-0.429 -35.325,17.395 -33.203,36.328c10.696,94.047 -53.367,180.424 -142.92,204.883c22.836,-73.6 11.719,-158.301 -32.763,-226.139c-6.169,-9.408 -16.651,-15.072 -27.881,-15.072l-196.566,0c-73.519,0 -133.333,-59.798 -133.333,-133.333l-0,-500Z" style="fill:#fff;fill-rule:nonzero;"/><path d="M366.667,666.667l76.127,-0c30.536,40.808 74.682,66.666 123.873,66.666l266.666,0c73.519,0 133.334,-59.814 133.334,-133.333l-0,-100c-0,-73.519 -59.815,-133.333 -133.334,-133.333l-100,-0l0,-100c-3.458,-131.869 -196.563,-131.832 -200,0.002c0,-0.002 0,70.684 0,70.684c-35.579,8.704 -66.756,31.423 -90.191,62.647l-76.475,-0c-55.144,-0 -100,44.856 -100,100l-0,66.666c-0,55.144 44.856,100 100,100l-0,0.001Zm200,-266.667c18.408,-0 33.333,-14.925 33.333,-33.333l0,-100c0,-18.376 14.958,-33.334 33.333,-33.334c18.376,0 33.334,14.958 33.334,33.334l-0,133.333c-0,18.408 14.925,33.333 33.333,33.333l133.333,0c36.768,0 66.667,29.899 66.667,66.667l0,100c0,36.768 -29.899,66.667 -66.667,66.667l-266.666,-0c-131.887,-4.847 -131.928,-261.833 -0,-266.667Zm-233.334,100c0,-18.376 14.958,-33.333 33.334,-33.333l43.011,-0c-12.787,41.308 -12.773,92.033 0.045,133.333l-43.057,-0c-18.375,-0 -33.333,-14.958 -33.333,-33.333l-0,-66.667l0,-0Z" style="fill:#fff;fill-rule:nonzero;"/><path d="M1293.21,845.345c23.639,10.109 39.083,28.591 49.087,51.139c16.371,22.789 58.644,14.104 61.395,-14.911c77.863,-105.472 236.67,-24.743 195.88,87.275c-21.195,67.627 -102.702,145.91 -229.799,158.066c-131.181,-12.412 -218.199,-96.523 -233.48,-169.72c-3.776,-18.001 -21.501,-29.59 -39.453,-25.814c-18.018,3.744 -29.574,21.42 -25.814,39.421c20.177,99.817 132.603,210.96 298.236,222.837c200.212,-7.531 410.458,-230.271 242.668,-387.687c-63.495,-56.097 -182.753,-51.52 -242.548,12.376c-22.292,-22.156 -71.146,-59.092 -92.741,-17.09c-7.601,16.764 -0.195,36.523 16.569,44.108l0,-0Z" style="fill:#fff;fill-rule:nonzero;"/></g></svg>