<svg clip-rule="evenodd" fill-rule="evenodd" height="43.349mm" image-rendering="optimizeQuality" shape-rendering="geometricPrecision" text-rendering="geometricPrecision" viewBox="0 0 4335 4335" width="43.349mm" xmlns="http://www.w3.org/2000/svg"><g id="Layer_x0020_1"><g id="_561868088"><path d="m2158 47c1146 0 2075 929 2075 2075s-929 2075-2075 2075-2075-929-2075-2075 929-2075 2075-2075z" fill="#039"/><path d="m2163 544v-1l-56 155-158 5 132 97-54 156 135-97 1-2 1 2 135 97-54-156 132-97-158-5-56-155zm-690 186v-1l-56 155-158 5 132 97-54 156 135-97 1-2 1 2 135 97-54-156 132-97-158-5-56-155zm1368 0v-1l-56 155-158 5 132 97-54 156 135-97 1-2 1 2 135 97-54-156 132-97-158-5-56-155zm-1868 494v-1l-56 155-158 5 132 97-54 156 135-97 1-2 1 2 135 97-54-156 132-97-158-5-56-155zm2374 0v-1l-56 155-158 5 132 97-54 156 135-97 1-2 1 2 135 97-54-156 132-97-158-5-56-155zm-2557 687v-1l-56 155-158 5 132 97-54 156 135-97 1-2 1 2 135 97-54-156 132-97-158-5-56-155zm2738 0v-1l-56 155-158 5 132 97-54 156 135-97 1-2 1 2 135 97-54-156 132-97-158-5-56-155zm-2555 681v-1l-56 155-158 5 132 97-54 156 135-97 1-2 1 2 135 97-54-156 132-97-158-5-56-155zm2374 0v-1l-56 155-158 5 132 97-54 156 135-97 1-2 1 2 135 97-54-156 132-97-158-5-56-155zm-1874 499v-1l-56 155-158 5 132 97-54 156 135-97 1-2 1 2 135 97-54-156 132-97-158-5-56-155zm1368 0v-1l-56 155-158 5 132 97-54 156 135-97 1-2 1 2 135 97-54-156 132-97-158-5-56-155zm-677 197v-1l-56 155-158 5 132 97-54 156 135-97 1-2 1 2 135 97-54-156 132-97-158-5-56-155z" fill="#ffed00"/><circle cx="2158" cy="2122" fill="none" r="2075"/></g></g></svg>