<?xml version="1.0" encoding="UTF-8" standalone="no"?><!DOCTYPE svg PUBLIC "-//W3C//DTD SVG 1.1//EN" "http://www.w3.org/Graphics/SVG/1.1/DTD/svg11.dtd"><svg width="100%" height="100%" viewBox="0 0 2028 2134" version="1.1" xmlns="http://www.w3.org/2000/svg" xmlns:xlink="http://www.w3.org/1999/xlink" xml:space="preserve" xmlns:serif="http://www.serif.com/" style="fill-rule:evenodd;clip-rule:evenodd;stroke-linejoin:round;stroke-miterlimit:2;"><g><path d="M1654.61,693.149c-68.15,-20.946 -142.721,3.262 -185.575,60.241l-88.934,118.263l-75.15,-622.209c-4.416,-39.579 -23.958,-75.087 -55.041,-100.004c-31.138,-24.962 -70.142,-36.308 -109.813,-31.937c-24.721,2.721 -47.362,11.396 -66.708,24.387c-13.509,-87.1 -86.225,-149.829 -165.667,-141.075c-40.85,4.5 -76.908,26.721 -101.521,62.575c-21.775,31.717 -32.112,70.867 -29.487,111.059c-22.129,-8.613 -46.142,-11.85 -70.409,-9.175c-39.675,4.366 -75.27,23.925 -100.233,55.066c-19.787,24.684 -30.975,54.309 -32.608,85.288c-22.646,-9.121 -47.346,-12.579 -72.313,-9.834c-39.608,4.363 -75.183,23.796 -100.166,54.725c-25.059,31.021 -36.463,69.867 -32.113,109.38l98.658,895.966c19.046,172.971 112.392,325.5 257.25,421.742l22.317,316.908c1.538,21.867 19.725,38.817 41.646,38.817l647.704,-0c11.871,-0 23.179,-5.05 31.096,-13.892c7.917,-8.841 11.7,-20.633 10.404,-32.429l-39.262,-356.596c57.6,-58.008 194.008,-205.6 203.095,-425.662l124.95,-398.525c13.621,-43.446 9.446,-89.563 -11.758,-129.859c-21.2,-40.291 -56.846,-69.845 -100.362,-83.22Zm32.441,188.095l-126.633,403.892c-1.138,3.629 -1.775,7.4 -1.892,11.204c-6.271,203.192 -143.129,339.463 -188.104,384.246l-5.012,5c-8.925,8.954 -13.313,21.475 -11.925,34.042l36.358,330.204l-562.188,-0l-21.058,-299.029c-0.946,-13.442 -8.325,-25.604 -19.808,-32.65c-133.154,-81.713 -219.267,-217.092 -236.263,-371.425l-98.658,-895.967c-1.896,-17.221 3.1,-34.187 14.071,-47.767c11.041,-13.67 26.791,-22.262 44.346,-24.195c17.57,-1.921 34.8,3.029 48.545,13.966c13.659,10.867 22.23,26.338 24.125,43.559l57.321,520.537c2.646,24.046 25.875,44.45 50.242,41.308c22.254,-2.866 38.571,-23.675 36.117,-45.966l-69.5,-631.192c-1.925,-17.5 3.075,-34.704 14.087,-48.446c11.013,-13.737 26.717,-22.366 44.221,-24.291c17.492,-1.93 34.704,3.075 48.442,14.087c13.737,11.013 22.366,26.717 24.291,44.217l69.5,631.191c2.629,23.871 24.4,39.25 47.563,36.688c23.104,-2.554 40.908,-22.383 38.291,-46.146l-83.087,-754.604c-2.558,-23.229 2.625,-45.621 14.596,-63.058c10.65,-15.505 25.5,-25.038 41.825,-26.834c36.104,-3.979 69.604,29.871 74.629,75.467l83.092,754.608c2.62,23.8 24.354,39.25 47.483,36.704c23.137,-2.55 40.992,-22.345 38.371,-46.158l-69.509,-631.192c-3.979,-36.129 22.18,-68.758 58.309,-72.737c17.512,-1.925 34.708,3.075 48.446,14.087c13.737,11.013 22.366,26.717 24.291,44.217c0.017,0.146 0.034,0.292 0.05,0.438l85.604,708.77l-30.041,39.95c-39.138,12.45 -141.921,53.842 -204.579,159.384c-11.771,19.829 -5.242,45.446 14.587,57.216c19.821,11.771 45.442,5.242 57.217,-14.587c58.25,-98.113 166.175,-124.833 167.091,-125.05c9.596,-2.204 18.1,-7.729 24.017,-15.596l199.854,-265.754c21.775,-28.954 59.671,-41.258 94.304,-30.613c22.117,6.796 40.225,21.817 51,42.292c10.771,20.471 12.892,43.908 5.971,65.983Z" style="fill:#fff;fill-rule:nonzero;"/><circle cx="1985.36" cy="392.294" r="41.667" style="fill:#fff;"/><path d="M1436.88,283.178c1.792,-0.3 181.971,-28.8 374.154,53.546c22.105,9.466 48.271,-2.259 55.992,-24.984c6.921,-20.371 -3.346,-43.304 -23.104,-51.775c-214.383,-91.85 -412.358,-60.554 -420.675,-59.175c-22.75,3.767 -38.138,25.259 -34.375,48.009c3.767,22.754 25.258,38.129 48.008,34.379Z" style="fill:#fff;fill-rule:nonzero;"/><path d="M1517.82,368.565c-22.963,1.654 -40.204,21.584 -38.6,44.546c1.604,22.967 21.525,40.317 44.508,38.746c2.25,-0.142 226.238,-13.25 400.592,148.725c17.862,16.592 46.95,14.021 61.683,-5.367c12.813,-16.858 10.658,-41.404 -4.85,-55.808c-201.696,-187.379 -452.75,-171.604 -463.333,-170.842Z" style="fill:#fff;fill-rule:nonzero;"/><path d="M260.277,771.553c19.621,-12.029 25.809,-37.675 13.817,-57.334c-12.008,-19.687 -37.708,-25.912 -57.383,-13.904c-5.475,3.338 -134.963,83.6 -212.567,242.509c-9.313,19.066 -2.429,42.75 15.633,53.87c20.742,12.771 48.738,4.609 59.404,-17.229c66.496,-136.158 179.959,-207.208 181.096,-207.912Z" style="fill:#fff;fill-rule:nonzero;"/><path d="M231.056,924.274c-4.25,4.195 -104.566,104.416 -144.525,247.383c-5.954,21.3 6.338,44.204 27.4,50.979c22.263,7.163 46.725,-5.979 53.021,-28.5c33.754,-120.767 121.579,-209.25 122.817,-210.479c16.362,-16.204 16.521,-42.604 0.337,-59c-16.212,-16.413 -42.645,-16.592 -59.05,-0.383Z" style="fill:#fff;fill-rule:nonzero;"/></g></svg>